<svg width="32" height="32" viewBox="0 0 32 32" fill="none" xmlns="http://www.w3.org/2000/svg">
<rect width="32" height="32" rx="16" fill="#1A202C"/>
<path d="M4.73 19.964C4.898 17.262 4.856 13.566 4.73 11.172C4.688 10.276 5.29 10.052 6.032 10.052C6.774 10.052 7.292 10.136 7.348 11.032C7.404 11.998 7.432 13.146 7.432 14.364H10.988C10.974 13.202 10.932 12.082 10.89 11.172C10.848 10.276 11.45 10.052 12.192 10.052C12.934 10.052 13.452 10.136 13.508 11.032C13.648 13.552 13.62 17.402 13.494 20.104C13.452 21 12.934 21.084 12.192 21.084C11.45 21.084 10.834 20.86 10.89 19.964C10.946 18.956 10.988 17.822 11.002 16.66H7.432C7.418 17.878 7.376 19.082 7.334 20.104C7.292 21 6.774 21.084 6.032 21.084C5.29 21.084 4.674 20.86 4.73 19.964ZM16.3831 21.42C15.5711 21.42 14.9551 20.79 14.9551 20.02C14.9551 19.292 15.5711 18.648 16.3831 18.648C17.2091 18.648 17.7831 19.292 17.7831 20.02C17.7831 20.79 17.2091 21.42 16.3831 21.42ZM18.9871 15.568C18.9871 11.76 20.6951 9.856 23.3691 9.856C25.0771 9.856 26.5051 10.598 27.1491 11.984C27.7791 13.356 25.4691 14.084 25.1471 13.384C24.8111 12.628 24.1391 12.236 23.3831 12.236C22.3751 12.236 21.6051 13.286 21.6051 15.568C21.6051 17.85 22.3751 18.9 23.4951 18.9C24.2511 18.9 24.9231 18.508 25.2591 17.752C25.5811 17.052 28.0591 17.78 27.4291 19.152C26.7851 20.538 25.3291 21.28 23.4811 21.28C20.6951 21.28 18.9871 19.376 18.9871 15.568Z" fill="#7DADBE"/>
</svg>
